<svg xmlns="http://www.w3.org/2000/svg" xmlns:xlink="http://www.w3.org/1999/xlink" width="128" zoomAndPan="magnify" viewBox="0 0 96 95.999999" height="128" preserveAspectRatio="xMidYMid meet" version="1.0"><defs><clipPath id="cf647e171e"><path d="M 38 32.519531 L 50 32.519531 L 50 44 L 38 44 Z M 38 32.519531 " clip-rule="nonzero"/></clipPath><clipPath id="48a1a5d278"><path d="M 8.816406 41 L 90 41 L 90 83.738281 L 8.816406 83.738281 Z M 8.816406 41 " clip-rule="nonzero"/></clipPath><clipPath id="4c04ef802d"><path d="M 3 9.601562 L 93 9.601562 L 93 51 L 3 51 Z M 3 9.601562 " clip-rule="nonzero"/></clipPath></defs><rect x="-9.6" width="115.2" fill="#ffffff" y="-9.6" height="115.199999" fill-opacity="1"/><rect x="-9.6" width="115.2" fill="#ffffff" y="-9.6" height="115.199999" fill-opacity="1"/><rect x="-9.6" width="115.2" fill="#ffffff" y="-9.6" height="115.199999" fill-opacity="1"/><g clip-path="url(#cf647e171e)"><path fill="#ef3448" d="M 43.261719 36.027344 C 43.1875 35.5625 43.089844 35.214844 42.929688 34.972656 L 42.929688 34.964844 C 42.800781 34.773438 42.597656 34.636719 42.289062 34.539062 C 41.949219 34.425781 41.59375 34.476562 41.296875 34.628906 C 40.996094 34.78125 40.761719 35.046875 40.648438 35.386719 C 40.382812 36.222656 40.558594 37.261719 40.957031 38.402344 C 41.304688 39.402344 41.828125 40.472656 42.386719 41.566406 C 43.480469 41.003906 44.53125 40.421875 45.398438 39.8125 C 46.382812 39.109375 47.128906 38.363281 47.394531 37.527344 C 47.5 37.1875 47.460938 36.832031 47.304688 36.535156 C 47.152344 36.238281 46.886719 36.003906 46.546875 35.890625 C 46.230469 35.796875 45.988281 35.789062 45.769531 35.875 L 45.71875 35.890625 C 45.460938 36.003906 45.1875 36.238281 44.863281 36.566406 C 44.507812 36.9375 43.917969 36.945312 43.542969 36.585938 C 43.375 36.429688 43.285156 36.238281 43.261719 36.027344 Z M 44.472656 33.953125 C 44.554688 34.074219 44.628906 34.203125 44.691406 34.339844 C 44.796875 34.28125 44.902344 34.226562 45.007812 34.1875 C 45.039062 34.167969 45.066406 34.160156 45.097656 34.144531 C 45.710938 33.914062 46.351562 33.894531 47.101562 34.136719 C 47.9375 34.402344 48.582031 34.972656 48.957031 35.691406 C 49.328125 36.40625 49.425781 37.261719 49.15625 38.089844 C 48.746094 39.367188 47.75 40.40625 46.464844 41.324219 C 45.273438 42.167969 43.835938 42.910156 42.402344 43.640625 C 41.949219 43.875 41.382812 43.699219 41.148438 43.238281 C 40.414062 41.816406 39.667969 40.390625 39.183594 39.015625 C 38.667969 37.527344 38.457031 36.109375 38.859375 34.828125 C 39.136719 34 39.71875 33.355469 40.429688 32.988281 C 41.148438 32.617188 42.007812 32.519531 42.839844 32.785156 C 43.59375 33.019531 44.109375 33.398438 44.472656 33.953125 Z M 44.472656 33.953125 " fill-opacity="1" fill-rule="nonzero"/></g><g clip-path="url(#48a1a5d278)"><path fill="#2364ec" d="M 71.410156 70 C 71.445312 70 71.476562 70 71.5 70.007812 C 74.195312 70.222656 76.796875 70.160156 79.054688 69.917969 C 79.144531 69.894531 79.234375 69.886719 79.324219 69.886719 C 79.644531 69.847656 79.953125 69.804688 80.261719 69.765625 C 82.242188 67.808594 83.199219 64.679688 83.640625 62.5 C 80.972656 61.605469 80.59375 59.472656 80.722656 57.878906 C 78.214844 57.847656 73.757812 57.171875 70.125 56.195312 C 66.863281 55.328125 64.1875 54.128906 63.785156 52.753906 C 63.695312 52.453125 63.628906 52.132812 63.539062 51.753906 C 63.332031 50.796875 63.039062 49.460938 62.464844 48.230469 C 61.210938 45.542969 58.402344 43.214844 51.359375 46.46875 C 47.378906 48.308594 44.691406 50.980469 42.890625 54.089844 C 46.1875 60.316406 50.914062 69.765625 49.941406 76.984375 C 49.53125 80.058594 47.914062 82.160156 45.980469 83.109375 C 45.089844 83.542969 44.125 83.738281 43.171875 83.671875 C 42.21875 83.609375 41.277344 83.285156 40.4375 82.683594 C 38.632812 81.402344 37.292969 78.859375 37.292969 74.925781 C 37.292969 69.691406 37.386719 63.714844 39.070312 58.265625 C 39.515625 56.816406 40.074219 55.417969 40.761719 54.070312 C 38.222656 49.378906 35.746094 45.832031 34.445312 44.0625 L 32.292969 49.171875 L 32.285156 49.1875 C 32.074219 49.652344 31.53125 49.863281 31.0625 49.660156 C 31.054688 49.660156 29.226562 48.832031 27.558594 48.898438 C 25.871094 48.96875 23.683594 49.960938 23.683594 49.960938 C 23.257812 50.152344 22.746094 50 22.503906 49.582031 L 19.914062 45.234375 C 19.179688 47.007812 17.992188 50.492188 16.988281 56.414062 C 16.761719 57.765625 16.558594 59.167969 16.390625 60.558594 C 18.355469 60.453125 19.769531 60.605469 19.777344 60.605469 C 20.289062 60.664062 20.660156 61.113281 20.601562 61.628906 C 20.546875 62.136719 20.09375 62.507812 19.574219 62.449219 C 19.566406 62.449219 18.121094 62.289062 16.171875 62.417969 C 16.015625 63.898438 15.886719 65.355469 15.78125 66.753906 C 17.546875 65.863281 18.90625 65.332031 18.914062 65.332031 C 19.390625 65.144531 19.933594 65.378906 20.117188 65.855469 C 20.304688 66.328125 20.070312 66.867188 19.59375 67.054688 C 19.582031 67.054688 17.738281 67.769531 15.636719 68.921875 C 15.328125 73.78125 15.304688 77.410156 15.304688 77.425781 C 15.304688 77.933594 14.882812 78.351562 14.375 78.34375 C 13.863281 78.34375 13.445312 77.925781 13.453125 77.417969 C 13.453125 77.402344 13.476562 74.34375 13.710938 70.070312 C 12.886719 70.609375 12.085938 71.207031 11.414062 71.835938 C 11.042969 72.179688 10.453125 72.164062 10.09375 71.792969 C 9.738281 71.421875 9.765625 70.835938 10.136719 70.480469 C 11.210938 69.484375 12.546875 68.574219 13.847656 67.808594 C 13.960938 66.167969 14.109375 64.414062 14.285156 62.628906 C 12.976562 62.835938 11.59375 63.199219 10.328125 63.808594 C 9.867188 64.035156 9.3125 63.84375 9.085938 63.382812 C 8.859375 62.925781 9.050781 62.371094 9.511719 62.144531 C 11.113281 61.363281 12.878906 60.945312 14.488281 60.726562 C 14.671875 59.167969 14.890625 57.613281 15.144531 56.101562 C 16.785156 46.371094 19.027344 42.789062 19.035156 42.78125 C 19.300781 42.347656 19.875 42.210938 20.3125 42.476562 C 20.464844 42.5625 20.578125 42.691406 20.652344 42.835938 L 23.675781 47.949219 C 24.574219 47.601562 26.121094 47.09375 27.472656 47.039062 C 28.75 46.988281 30.066406 47.335938 30.910156 47.617188 L 33.34375 41.847656 C 33.539062 41.371094 34.085938 41.148438 34.566406 41.347656 C 34.726562 41.414062 34.855469 41.515625 34.953125 41.644531 C 35.203125 41.960938 38.382812 45.984375 41.871094 52.195312 C 43.828125 49.195312 46.609375 46.613281 50.582031 44.777344 C 59.035156 40.890625 62.539062 43.980469 64.164062 47.464844 C 64.828125 48.890625 65.140625 50.339844 65.367188 51.375 C 65.449219 51.753906 65.523438 52.078125 65.570312 52.253906 C 65.757812 52.898438 67.925781 53.703125 70.609375 54.417969 C 74.40625 55.433594 79.089844 56.117188 81.265625 56.035156 C 82.734375 55.980469 84.046875 55.800781 85.113281 55.648438 C 87.21875 55.359375 88.570312 55.167969 89.238281 56.292969 C 89.273438 56.339844 89.296875 56.390625 89.3125 56.429688 C 89.328125 56.460938 89.335938 56.488281 89.34375 56.519531 C 89.660156 57.316406 90.046875 59.90625 89.804688 62.59375 C 89.546875 65.460938 88.585938 68.535156 86.125 70.007812 C 85.972656 70.105469 85.792969 70.191406 85.617188 70.273438 C 84.546875 70.773438 82.921875 71.214844 80.957031 71.527344 C 80.925781 71.535156 80.890625 71.542969 80.851562 71.550781 C 81.621094 73.050781 81.554688 74.3125 81.070312 75.285156 C 80.792969 75.84375 80.375 76.285156 79.890625 76.621094 C 79.417969 76.953125 78.894531 77.167969 78.367188 77.28125 C 77.148438 77.546875 75.917969 77.21875 75.367188 76.285156 C 74.890625 75.480469 74.074219 74.480469 73.214844 73.613281 C 72.4375 72.824219 71.652344 72.148438 71.105469 71.84375 C 70.183594 71.761719 69.25 71.65625 68.328125 71.511719 C 63.296875 70.730469 58.347656 68.914062 55.046875 65.484375 C 54.691406 65.113281 54.699219 64.527344 55.070312 64.171875 C 55.441406 63.816406 56.035156 63.828125 56.390625 64.195312 C 59.367188 67.296875 63.945312 68.953125 68.613281 69.675781 C 69.558594 69.820312 70.488281 69.925781 71.410156 70 Z M 41.863281 56.132812 C 41.472656 57 41.148438 57.902344 40.867188 58.820312 C 39.265625 64.003906 39.175781 69.832031 39.175781 74.941406 C 39.175781 78.199219 40.179688 80.226562 41.53125 81.195312 C 42.078125 81.589844 42.695312 81.796875 43.308594 81.835938 C 43.933594 81.878906 44.570312 81.75 45.160156 81.460938 C 46.585938 80.757812 47.773438 79.15625 48.097656 76.75 C 48.949219 70.472656 44.621094 61.523438 41.863281 56.132812 Z M 85.460938 62.859375 C 85.082031 64.6875 84.371094 67.132812 83.058594 69.203125 C 83.761719 69.007812 84.363281 68.800781 84.839844 68.582031 C 84.953125 68.535156 85.066406 68.46875 85.179688 68.398438 C 86.894531 67.375 87.644531 65.097656 87.914062 62.859375 C 86.984375 62.941406 86.175781 62.933594 85.460938 62.859375 Z M 73.539062 64.277344 C 74.128906 64.277344 74.605469 64.75 74.605469 65.339844 C 74.605469 65.925781 74.128906 66.402344 73.539062 66.402344 C 72.949219 66.402344 72.472656 65.925781 72.472656 65.339844 C 72.472656 64.761719 72.949219 64.277344 73.539062 64.277344 Z M 69.484375 64.277344 C 70.078125 64.277344 70.554688 64.75 70.554688 65.339844 C 70.554688 65.925781 70.078125 66.402344 69.484375 66.402344 C 68.894531 66.402344 68.417969 65.925781 68.417969 65.339844 C 68.417969 64.761719 68.894531 64.277344 69.484375 64.277344 Z M 75.949219 60.816406 C 76.539062 60.816406 77.015625 61.292969 77.015625 61.878906 C 77.015625 62.464844 76.539062 62.941406 75.949219 62.941406 C 75.359375 62.941406 74.882812 62.464844 74.882812 61.878906 C 74.882812 61.292969 75.359375 60.816406 75.949219 60.816406 Z M 71.550781 60.816406 C 72.140625 60.816406 72.617188 61.292969 72.617188 61.878906 C 72.617188 62.464844 72.140625 62.941406 71.550781 62.941406 C 70.957031 62.941406 70.480469 62.464844 70.480469 61.878906 C 70.480469 61.292969 70.957031 60.816406 71.550781 60.816406 Z M 67.253906 60.816406 C 67.84375 60.816406 68.320312 61.292969 68.320312 61.878906 C 68.320312 62.464844 67.84375 62.941406 67.253906 62.941406 C 66.664062 62.941406 66.1875 62.464844 66.1875 61.878906 C 66.175781 61.292969 66.664062 60.816406 67.253906 60.816406 Z M 59.957031 50.765625 C 60.910156 50.765625 61.679688 52.125 61.679688 53.808594 C 61.679688 55.488281 60.910156 56.847656 59.957031 56.847656 C 59.003906 56.847656 58.234375 55.488281 58.234375 53.808594 C 58.234375 52.125 59.011719 50.765625 59.957031 50.765625 Z M 53.46875 50.910156 C 54.425781 50.910156 55.191406 52.269531 55.191406 53.953125 C 55.191406 55.632812 54.425781 56.992188 53.46875 56.992188 C 52.515625 56.992188 51.746094 55.632812 51.746094 53.953125 C 51.746094 52.269531 52.523438 50.910156 53.46875 50.910156 Z M 74.234375 71.980469 C 74.339844 72.082031 74.453125 72.195312 74.558594 72.300781 C 75.519531 73.273438 76.449219 74.410156 76.992188 75.335938 C 77.105469 75.527344 77.527344 75.550781 77.988281 75.457031 C 78.289062 75.390625 78.578125 75.269531 78.835938 75.09375 C 79.070312 74.925781 79.28125 74.707031 79.410156 74.441406 C 79.710938 73.847656 79.644531 72.96875 78.84375 71.777344 C 77.414062 71.921875 75.851562 71.996094 74.234375 71.980469 Z M 74.234375 71.980469 " fill-opacity="1" fill-rule="nonzero"/></g><path fill="#2364ec" d="M 23.945312 62.933594 C 23.945312 62.417969 24.363281 62.007812 24.875 62.007812 C 25.390625 62.007812 25.804688 62.425781 25.804688 62.933594 C 25.804688 62.941406 25.796875 65.46875 27.105469 65.292969 C 28.539062 65.097656 28.199219 62.820312 28.191406 62.8125 C 28.117188 62.304688 28.472656 61.839844 28.984375 61.765625 C 29.414062 61.703125 29.824219 61.953125 29.980469 62.335938 C 29.980469 62.34375 30.835938 64.527344 32.527344 64.421875 C 33.835938 64.339844 33.375 61.878906 33.375 61.878906 C 33.285156 61.371094 33.625 60.898438 34.136719 60.808594 C 34.644531 60.71875 35.125 61.058594 35.210938 61.566406 C 35.210938 61.582031 36.070312 66.070312 32.632812 66.273438 C 31.410156 66.34375 30.464844 65.847656 29.777344 65.21875 C 29.4375 66.121094 28.742188 66.941406 27.359375 67.125 C 23.917969 67.585938 23.945312 62.941406 23.945312 62.933594 Z M 23.945312 62.933594 " fill-opacity="1" fill-rule="nonzero"/><path fill="#2364ec" d="M 23.476562 55.425781 C 24.21875 55.351562 24.914062 56.179688 25.027344 57.285156 C 25.140625 58.386719 24.632812 59.34375 23.886719 59.417969 C 23.144531 59.488281 22.449219 58.660156 22.335938 57.558594 C 22.214844 56.453125 22.730469 55.496094 23.476562 55.425781 Z M 23.476562 55.425781 " fill-opacity="1" fill-rule="evenodd"/><path fill="#2364ec" d="M 33.296875 53.953125 C 34.039062 53.878906 34.734375 54.707031 34.847656 55.8125 C 34.960938 56.914062 34.453125 57.871094 33.707031 57.941406 C 32.964844 58.015625 32.269531 57.1875 32.15625 56.085938 C 32.042969 54.980469 32.550781 54.023438 33.296875 53.953125 Z M 33.296875 53.953125 " fill-opacity="1" fill-rule="evenodd"/><g clip-path="url(#4c04ef802d)"><path fill="#2364ec" d="M 5.242188 50.8125 C 4.71875 50.8125 4.203125 50.589844 3.828125 50.167969 C 3.164062 49.398438 3.242188 48.222656 4.011719 47.539062 L 46.808594 10.257812 C 47.503906 9.644531 48.550781 9.644531 49.25 10.257812 L 59.191406 18.921875 L 59.191406 11.671875 C 59.191406 10.636719 60.023438 9.804688 61.054688 9.804688 L 72.214844 9.804688 C 73.238281 9.804688 74.078125 10.644531 74.078125 11.671875 L 74.078125 31.894531 L 92.035156 47.539062 C 92.8125 48.222656 92.890625 49.398438 92.226562 50.179688 C 91.550781 50.957031 90.371094 51.035156 89.59375 50.359375 L 70.996094 34.15625 C 70.582031 33.800781 70.34375 33.289062 70.34375 32.75 L 70.34375 13.527344 L 62.910156 13.527344 L 62.910156 23.011719 C 62.910156 23.742188 62.480469 24.402344 61.824219 24.703125 C 61.164062 25.007812 60.378906 24.894531 59.824219 24.410156 L 48.019531 14.132812 L 6.453125 50.351562 C 6.105469 50.664062 5.667969 50.8125 5.242188 50.8125 " fill-opacity="1" fill-rule="nonzero"/></g></svg>